DataType=double
version=3
OpenSimVersion=4.5-2023-11-26-efcdfd3eb
endheader
time	EMG01_right_gast_med	EMG02_right_glut_max	EMG03_left_gast_med	EMG04_left_glut_max	EMG05_right_glut_med	EMG06_right_bic_fem	EMG07_right_rect_fem	EMG08_right_vast_lat	EMG09_right_vast_med	EMG10_right_tens_fasc_lat	EMG11_left_glut_med	EMG12_left_bic_fem	EMG13_left_rect_fem	EMG14_left_vast_lat	EMG15_left_vast_med	EMG16_left_tens_fasc_lat
0	-0.02474960124628767	0.008670953617324719	0.002074481443854235	0.007100281048851706	0.007192904421281437	0.002052545676943963	-0.0001971720883772482	-5.963949059024051e-05	0.001899303527485473	0.005303249602700431	0.001227355781059364	8.780102048953485e-05	0.002588643076033282	0.002345627750395977	0.004621570309896674	0.005383352740781134
0.01	-0.01996913497020918	0.01688542173509931	0.003055158796273833	0.01756407066746171	0.01161365515412746	0.009637401330769488	0.003807893559447704	0.001471149955755067	0.006365718854445247	0.01119375419228883	0.003425893532804998	0.0004695735212836373	0.008973590214656268	0.004769726875850759	0.006698853215161929	0.009733318406344156
0.02	-0.01467872322502479	0.02509890746628626	0.004005929895360303	0.02768116135437289	0.01599449797208157	0.01723105765387088	0.007764761585423776	0.00299328332504658	0.01069966651368697	0.01685228148911885	0.00559707430405022	0.0008129537899934782	0.01529706363430335	0.007066482280477888	0.008685236552740552	0.01413200941224759
0.03	-0.008849538138903363	0.03323122121218218	0.004916121113393208	0.03739790524776289	0.02028189293095091	0.02477793188986058	0.01163889876563403	0.004492397770090328	0.01487725251975979	0.02223090717559494	0.007725633420515808	0.001120234864615732	0.02150262781479056	0.009220183791646578	0.0105581959053167	0.01854890396811694
0.04	-0.002453117183293851	0.0412023779553235	0.005775939161654641	0.04666376185243168	0.02442393530900998	0.03222329977471326	0.0153979156419629	0.005954789348929583	0.0188760569531832	0.02728525022486194	0.009797619624940865	0.001394875450449335	0.02753603692108034	0.0112171646326329	0.01229667692272632	0.02295306840105672
0.05	0.004538223451572935	0.04893380116769542	0.006576712216026795	0.05543179166107923	0.02837140292445941	0.03951417324566671	0.01901222438431605	0.007367677425543858	0.02267541417937902	0.031975302267687	0.01180073084198292	0.001641538043958735	0.03334617758504615	0.0130460833354334	0.01388151937241554	0.02731359152088257
0.06	0.01215089207802567	0.05634948243809907	0.007311112822282603	0.06365913973894008	0.03207869525036663	0.0466000873930528	0.02245560999925495	0.008719433994892304	0.02625665964290413	0.03626618483072197	0.01372461653758368	0.001866110683196631	0.03888596335661084	0.01469817904063584	0.01529585769800339	0.03160002724940827
0.07000000000000001	0.02040944437498345	0.06337707649331367	0.00797335733613758	0.07130750628418524	0.03550464623159196	0.05343377907215319	0.025705700211439	0.009999773929000196	0.02960333809802031	0.04012881950518376	0.01556113817491203	0.002075711150875065	0.04411316570574346	0.01616749543953556	0.01652548978532263	0.03578284040539148
0.08	0.02933593330097522	0.06994891407895902	0.008559377315843886	0.07834359885744953	0.03861320344361224	0.05997174899153649	0.02874432417254253	0.01119990420115878	0.03270137018361236	0.04354049969986536	0.01730458048409345	0.002278672706398216	0.04899116811035948	0.01745106910968493	0.0175592059220736	0.03983385130267657
0.09	0.03894919669371191	0.07600291759504571	0.009066959013499963	0.08473955824009126	0.04137397428396514	0.06617470636177389	0.0315577552630226	0.01231263146345635	0.03553917597526865	0.04648535544636565	0.01895180814239969	0.002484510537247339	0.0534896309915089	0.01854907830545424	0.018389070443672	0.0437266752706848
0.1	0.04926409548373181	0.08148340739193903	0.009495847797721273	0.0904733469876479	0.04376264489837294	0.07200790020829648	0.03413683786272854	0.01333242827198455	0.03810775530448124	0.04895470497511377	0.02050236482309825	0.002703868153062421	0.0575850556512474	0.01946494834505798	0.01901064945494244	0.04743715317728631
0.11	0.06029071722837596	0.08634179023389282	0.00984781489812844	0.09552908722407157	0.04576127980446667	0.07744134472442943	0.03647700115367225	0.01425545896232865	0.04040072559878145	0.0509472884569916	0.02195851389988647	0.002948442949391961	0.06126123497654067	0.02020540959624441	0.01942317929132785	0.05094376851500189
0.12	0.07203356112406267	0.09053712505204431	0.01012668437277646	0.09989733264806018	0.04735851067117221	0.08244994795887463	0.03857816495653719	0.01507956684204537	0.04241431921308093	0.0524693804116973	0.02332522207354339	0.003230890186297408	0.06450957854408584	0.02078050380202392	0.01962967181550034	0.0542280456781936
0.13	0.08449072183053287	0.09403656434355041	0.01033831887387491	0.1035752592662953	0.04854962232385292	0.08701355414172028	0.04044454401274554	0.01580422510529155	0.04414734354492856	0.05353477839083642	0.02461008864766565	0.003564704708351516	0.06732930147669257	0.02120353437138175	0.01963695410142339	0.05727492281083665
0.14	0.09765309053700164	0.09681567223032114	0.01049056375596293	0.1065667599750356	0.04933654327885666	0.09111691057357231	0.0420843585065571	0.01643045469234809	0.04560110807829305	0.05416466734631942	0.02582322389549223	0.00396407990340564	0.06972747080452597	0.02149095665625836	0.01945564165485644	0.06007309137885206
0.15	0.1115035927107546	0.09885862212466617	0.01059315020676578	0.1088824300436025	0.04972774732479611	0.09474957013112777	0.04350946032504825	0.01696071317271813	0.04677932250419137	0.05438736169685246	0.02697707992922969	0.004443743644523724	0.07171890961117919	0.02166220539337294	0.01910004607608788	0.06261529402844772
0.16	0.1260164823049087	0.1001582783300884	0.01065755906083887	0.1105394341734182	0.04973807220526259	0.0979057393910622	0.0447348866656461	0.01739875958411552	0.04768796947246747	0.05423793015162563	0.02808623713270693	0.005018771285640144	0.07332596635681148	0.02173945842363632	0.01858801967798049	0.06489857262980012
0.17	0.1411567112149208	0.1007161670466436	0.010696847532938	0.1115612510431007	0.04938846151243253	0.100584080012652	0.04577835462070035	0.0177495008551487	0.04833515506864795	0.0537577113633111	0.02916714907532014	0.005704376234434869	0.07457816264189258	0.02174733830614318	0.01794074073781114	0.0669244591539198
0.18	0.1568793908511823	0.1005423431519264	0.01072544129720861	0.1119772977581346	0.04870563632507217	0.1027874683649906	0.04665971166778412	0.01801882572628292	0.04873094027007666	0.05299373090557035	0.03023784915197899	0.00651567921299398	0.07551173592661786	0.02171255608464862	0.0171824437918447	0.0686991024114708
0.19	0.1731293616740333	0.09965515977588642	0.01075889437415837	0.1118224437855961	0.04772170355834348	0.1045227169647768	0.04740035753272866	0.01821343186922074	0.04888715720476643	0.05199803147943163	0.03131762296115882	0.007467457967573663	0.0761690941265438	0.0216635037437704	0.01634009985257518	0.07023332375455089
0.2	0.1898408882363581	0.09808094835855796	0.01081361947552441	0.1111364303289652	0.0464737081829799	0.1058002620658761	0.04802265304287891	0.01834065134836859	0.04881721454994409	0.05082692861486533	0.03242665147552325	0.008573879889238805	0.0765981972952187	0.02162980353402044	0.01544305183076954	0.07154259553856987
